<?xml version="1.0" encoding="UTF-8"?>
<svg version="1.1" xmlns="http://www.w3.org/2000/svg" width="48" height="48">
<path d="M0 0 C5.82485779 3.51996782 10.54466582 8.98962934 12.5625 15.5 C13.36764105 23.33608208 13.68710392 31.11922577 8.5625 37.5 C3.75801361 42.54521222 -0.59927055 46.10562995 -7.70703125 46.8359375 C-16.22326573 46.92983204 -22.11345494 46.6177288 -28.40234375 40.62890625 C-34.7841668 33.72505269 -35.91792252 28.29832071 -35.7421875 18.9453125 C-35.04689797 11.08319245 -31.38995981 6.95041296 -25.53515625 1.9453125 C-18.47077988 -2.92213491 -7.84396301 -3.47595223 0 0 Z M-28.4375 12.0625 C-31.35138882 17.30551763 -31.39360282 22.67717706 -30.4375 28.5 C-28.48185326 33.94530996 -24.84451267 37.84964702 -19.80859375 40.6484375 C-14.33497817 42.61425002 -8.54002183 42.61425002 -3.06640625 40.6484375 C1.96951267 37.84964702 5.60685326 33.94530996 7.5625 28.5 C8.51860282 22.67717706 8.47638882 17.30551763 5.5625 12.0625 C1.85720996 7.1186729 -2.17017371 4.03649234 -8.33984375 3.0234375 C-17.18729717 2.59947378 -23.09586177 4.93535595 -28.4375 12.0625 Z " fill="#000000" transform="translate(35.4375,1.5)"/>
<path d="M0 0 C6.6 0 13.2 0 20 0 C20 1.32 20 2.64 20 4 C13.4 4 6.8 4 0 4 C0 2.68 0 1.36 0 0 Z " fill="#000000" transform="translate(14,30)"/>
<path d="M0 0 C6.6 0 13.2 0 20 0 C20 1.32 20 2.64 20 4 C13.4 4 6.8 4 0 4 C0 2.68 0 1.36 0 0 Z " fill="#000000" transform="translate(14,22)"/>
<path d="M0 0 C6.6 0 13.2 0 20 0 C20 1.32 20 2.64 20 4 C13.4 4 6.8 4 0 4 C0 2.68 0 1.36 0 0 Z " fill="#000000" transform="translate(14,14)"/>
</svg>
